<mxfile host="app.diagrams.net" modified="2023-10-30T18:41:53.492Z" agent="Mozilla/5.0 (Windows NT 10.0; Win64; x64) AppleWebKit/537.36 (KHTML, like Gecko) Chrome/118.0.0.0 Safari/537.36" etag="op33-yLWxz8Iq5qkjfbj" version="22.0.8" type="device">
  <diagram name="Page-1" id="52a04d89-c75d-2922-d76d-85b35f80e030">
    <mxGraphModel dx="704" dy="1237" grid="1" gridSize="10" guides="1" tooltips="1" connect="1" arrows="1" fold="1" page="1" pageScale="1" pageWidth="1100" pageHeight="850" background="none" math="0" shadow="0">
      <root>
        <mxCell id="0" />
        <mxCell id="1" parent="0" />
        <mxCell id="USD61Rw_IF0pP68Y9RJP-89" style="edgeStyle=orthogonalEdgeStyle;rounded=0;orthogonalLoop=1;jettySize=auto;html=1;exitX=0.75;exitY=0;exitDx=0;exitDy=0;entryX=0.75;entryY=0;entryDx=0;entryDy=0;startArrow=oval;startFill=1;" parent="1" target="USD61Rw_IF0pP68Y9RJP-1" edge="1">
          <mxGeometry relative="1" as="geometry">
            <mxPoint x="320" y="340" as="targetPoint" />
            <mxPoint x="640" y="308" as="sourcePoint" />
            <Array as="points">
              <mxPoint x="640" y="218" />
              <mxPoint x="320" y="218" />
            </Array>
          </mxGeometry>
        </mxCell>
        <mxCell id="USD61Rw_IF0pP68Y9RJP-1" value="&lt;font style=&quot;font-size: 20px;&quot;&gt;MUX&lt;/font&gt;" style="rounded=0;whiteSpace=wrap;html=1;" parent="1" vertex="1">
          <mxGeometry x="230" y="350.07" width="120" height="60" as="geometry" />
        </mxCell>
        <mxCell id="USD61Rw_IF0pP68Y9RJP-79" value="" style="edgeStyle=orthogonalEdgeStyle;rounded=0;orthogonalLoop=1;jettySize=auto;html=1;" parent="1" source="USD61Rw_IF0pP68Y9RJP-2" target="USD61Rw_IF0pP68Y9RJP-3" edge="1">
          <mxGeometry relative="1" as="geometry" />
        </mxCell>
        <mxCell id="USD61Rw_IF0pP68Y9RJP-193" style="edgeStyle=orthogonalEdgeStyle;rounded=0;orthogonalLoop=1;jettySize=auto;html=1;exitX=0;exitY=0.5;exitDx=0;exitDy=0;entryX=0;entryY=0.75;entryDx=0;entryDy=0;" parent="1" source="USD61Rw_IF0pP68Y9RJP-2" target="USD61Rw_IF0pP68Y9RJP-167" edge="1">
          <mxGeometry relative="1" as="geometry" />
        </mxCell>
        <mxCell id="USD61Rw_IF0pP68Y9RJP-2" value="&lt;font style=&quot;font-size: 22px;&quot;&gt;Address&lt;/font&gt;" style="rounded=0;whiteSpace=wrap;html=1;rotation=90;" parent="1" vertex="1">
          <mxGeometry x="340" y="519.6600000000001" width="120" height="60" as="geometry" />
        </mxCell>
        <mxCell id="USD61Rw_IF0pP68Y9RJP-3" value="&lt;span style=&quot;font-size: 22px;&quot;&gt;Memory&lt;br&gt;&lt;/span&gt;" style="rounded=0;whiteSpace=wrap;html=1;rotation=90;" parent="1" vertex="1">
          <mxGeometry x="500" y="519.6600000000001" width="120" height="60" as="geometry" />
        </mxCell>
        <mxCell id="USD61Rw_IF0pP68Y9RJP-4" value="&lt;font style=&quot;font-size: 15px;&quot;&gt;Register&lt;br&gt;FIle&lt;/font&gt;" style="rounded=0;whiteSpace=wrap;html=1;" parent="1" vertex="1">
          <mxGeometry x="810" y="470" width="96.26" height="120" as="geometry" />
        </mxCell>
        <mxCell id="USD61Rw_IF0pP68Y9RJP-117" style="edgeStyle=orthogonalEdgeStyle;rounded=0;orthogonalLoop=1;jettySize=auto;html=1;exitX=0;exitY=0.25;exitDx=0;exitDy=0;entryX=0;entryY=0.5;entryDx=0;entryDy=0;" parent="1" source="USD61Rw_IF0pP68Y9RJP-6" target="USD61Rw_IF0pP68Y9RJP-1" edge="1">
          <mxGeometry relative="1" as="geometry">
            <mxPoint x="250" y="350" as="targetPoint" />
          </mxGeometry>
        </mxCell>
        <mxCell id="USD61Rw_IF0pP68Y9RJP-118" style="edgeStyle=orthogonalEdgeStyle;rounded=0;orthogonalLoop=1;jettySize=auto;html=1;exitX=0;exitY=0.75;exitDx=0;exitDy=0;entryX=-0.132;entryY=0.945;entryDx=0;entryDy=0;entryPerimeter=0;" parent="1" source="USD61Rw_IF0pP68Y9RJP-6" target="USD61Rw_IF0pP68Y9RJP-73" edge="1">
          <mxGeometry relative="1" as="geometry">
            <mxPoint x="730" y="680" as="targetPoint" />
            <Array as="points">
              <mxPoint x="730" y="-57" />
              <mxPoint x="730" y="657" />
            </Array>
          </mxGeometry>
        </mxCell>
        <mxCell id="USD61Rw_IF0pP68Y9RJP-124" style="edgeStyle=orthogonalEdgeStyle;rounded=0;orthogonalLoop=1;jettySize=auto;html=1;exitX=1;exitY=0.75;exitDx=0;exitDy=0;entryX=0.387;entryY=0.199;entryDx=0;entryDy=0;entryPerimeter=0;" parent="1" source="USD61Rw_IF0pP68Y9RJP-6" target="USD61Rw_IF0pP68Y9RJP-57" edge="1">
          <mxGeometry relative="1" as="geometry">
            <mxPoint x="1400" y="367.5" as="targetPoint" />
            <Array as="points">
              <mxPoint x="1490" y="-57" />
              <mxPoint x="1490" y="368" />
              <mxPoint x="1400" y="368" />
            </Array>
          </mxGeometry>
        </mxCell>
        <mxCell id="USD61Rw_IF0pP68Y9RJP-6" value="&lt;span style=&quot;font-size: 23px;&quot;&gt;Controller&lt;br&gt;&lt;/span&gt;" style="rounded=0;whiteSpace=wrap;html=1;" parent="1" vertex="1">
          <mxGeometry x="1230" y="-200" width="150" height="190" as="geometry" />
        </mxCell>
        <mxCell id="USD61Rw_IF0pP68Y9RJP-7" value="&lt;span style=&quot;&quot;&gt;Sign&lt;br&gt;Extender&lt;br&gt;&lt;/span&gt;" style="rounded=0;whiteSpace=wrap;html=1;" parent="1" vertex="1">
          <mxGeometry x="960" y="540.4" width="80" height="40" as="geometry" />
        </mxCell>
        <object label="" placeholders="1" id="USD61Rw_IF0pP68Y9RJP-23">
          <mxCell style="group;rounded=0;" parent="1" vertex="1" connectable="0">
            <mxGeometry x="489.9986360209318" y="239.9952471546589" width="85.47136397906819" height="119.59950569068224" as="geometry" />
          </mxCell>
        </object>
        <mxCell id="USD61Rw_IF0pP68Y9RJP-78" value="" style="group;" parent="USD61Rw_IF0pP68Y9RJP-23" vertex="1" connectable="0">
          <mxGeometry x="-1.4210854715202004e-14" y="-3.552713678800501e-15" width="85.4713639790682" height="119.59950569068224" as="geometry" />
        </mxCell>
        <mxCell id="USD61Rw_IF0pP68Y9RJP-66" value="" style="group;" parent="USD61Rw_IF0pP68Y9RJP-78" vertex="1" connectable="0">
          <mxGeometry width="85.4713639790682" height="114.93475284534111" as="geometry" />
        </mxCell>
        <mxCell id="USD61Rw_IF0pP68Y9RJP-81" style="edgeStyle=orthogonalEdgeStyle;rounded=0;orthogonalLoop=1;jettySize=auto;html=1;" parent="USD61Rw_IF0pP68Y9RJP-66" source="USD61Rw_IF0pP68Y9RJP-12" edge="1">
          <mxGeometry relative="1" as="geometry">
            <mxPoint x="-29.998636020931826" y="310.0047528453411" as="targetPoint" />
          </mxGeometry>
        </mxCell>
        <mxCell id="USD61Rw_IF0pP68Y9RJP-12" value="" style="line;strokeWidth=1;html=1;perimeter=backbonePerimeter;points=[];outlineConnect=0;rotation=90;container=0;" parent="USD61Rw_IF0pP68Y9RJP-66" vertex="1">
          <mxGeometry x="-14.258636020931803" y="19.934752845341112" width="40" height="10" as="geometry" />
        </mxCell>
        <mxCell id="USD61Rw_IF0pP68Y9RJP-13" value="" style="line;strokeWidth=1;html=1;perimeter=backbonePerimeter;points=[];outlineConnect=0;rotation=15;direction=west;container=0;" parent="USD61Rw_IF0pP68Y9RJP-66" vertex="1">
          <mxGeometry x="4.471363979068215" y="9.66475284534113" width="76" height="10" as="geometry" />
        </mxCell>
        <mxCell id="USD61Rw_IF0pP68Y9RJP-14" value="" style="line;strokeWidth=1;html=1;perimeter=backbonePerimeter;points=[];outlineConnect=0;rotation=90;container=0;" parent="USD61Rw_IF0pP68Y9RJP-66" vertex="1">
          <mxGeometry x="-14.258636020931803" y="89.93475284534111" width="40" height="10" as="geometry" />
        </mxCell>
        <mxCell id="USD61Rw_IF0pP68Y9RJP-16" value="" style="line;strokeWidth=1;html=1;perimeter=backbonePerimeter;points=[];outlineConnect=0;rotation=90;container=0;" parent="USD61Rw_IF0pP68Y9RJP-66" vertex="1">
          <mxGeometry x="43.4913639790682" y="55.18475284534111" width="70.5" height="10" as="geometry" />
        </mxCell>
        <mxCell id="USD61Rw_IF0pP68Y9RJP-17" value="" style="line;strokeWidth=1;html=1;perimeter=backbonePerimeter;points=[];outlineConnect=0;rotation=45;container=0;" parent="USD61Rw_IF0pP68Y9RJP-66" vertex="1">
          <mxGeometry x="3.0913639790682197" y="46.904752845341136" width="22.25" height="10" as="geometry" />
        </mxCell>
        <mxCell id="USD61Rw_IF0pP68Y9RJP-18" value="" style="line;strokeWidth=1;html=1;perimeter=backbonePerimeter;points=[];outlineConnect=0;rotation=-225;container=0;" parent="USD61Rw_IF0pP68Y9RJP-66" vertex="1">
          <mxGeometry x="2.741363979068197" y="58.904752845341136" width="22.25" height="16.97" as="geometry" />
        </mxCell>
        <mxCell id="USD61Rw_IF0pP68Y9RJP-35" value="&lt;font style=&quot;font-size: 17px;&quot;&gt;Adder&lt;/font&gt;" style="text;html=1;align=center;verticalAlign=middle;resizable=0;points=[];autosize=1;strokeColor=none;fillColor=none;" parent="USD61Rw_IF0pP68Y9RJP-66" vertex="1">
          <mxGeometry x="15.471363979068201" y="46.90475284534108" width="70" height="30" as="geometry" />
        </mxCell>
        <mxCell id="USD61Rw_IF0pP68Y9RJP-15" value="" style="line;strokeWidth=1;html=1;perimeter=backbonePerimeter;points=[];outlineConnect=0;rotation=-15;container=0;" parent="USD61Rw_IF0pP68Y9RJP-78" vertex="1">
          <mxGeometry x="4.471363979068215" y="99.93475284534111" width="76" height="10" as="geometry" />
        </mxCell>
        <mxCell id="USD61Rw_IF0pP68Y9RJP-45" value="" style="group;" parent="1" vertex="1" connectable="0">
          <mxGeometry x="1349.9986360209318" y="99.9952471546589" width="83.74136397906818" height="119.59950569068224" as="geometry" />
        </mxCell>
        <object label="" placeholders="1" id="USD61Rw_IF0pP68Y9RJP-36">
          <mxCell style="group;rounded=0;" parent="USD61Rw_IF0pP68Y9RJP-45" vertex="1" connectable="0">
            <mxGeometry width="83.74136397906818" height="119.59950569068224" as="geometry" />
          </mxCell>
        </object>
        <mxCell id="USD61Rw_IF0pP68Y9RJP-37" value="" style="line;strokeWidth=1;html=1;perimeter=backbonePerimeter;points=[];outlineConnect=0;rotation=90;container=0;" parent="USD61Rw_IF0pP68Y9RJP-36" vertex="1">
          <mxGeometry x="-14.258636020931817" y="19.93475284534111" width="40" height="10" as="geometry" />
        </mxCell>
        <mxCell id="USD61Rw_IF0pP68Y9RJP-38" value="" style="line;strokeWidth=1;html=1;perimeter=backbonePerimeter;points=[];outlineConnect=0;rotation=15;direction=west;container=0;" parent="USD61Rw_IF0pP68Y9RJP-36" vertex="1">
          <mxGeometry x="4.471363979068201" y="9.664752845341127" width="76" height="10" as="geometry" />
        </mxCell>
        <mxCell id="USD61Rw_IF0pP68Y9RJP-39" value="" style="line;strokeWidth=1;html=1;perimeter=backbonePerimeter;points=[];outlineConnect=0;rotation=90;container=0;" parent="USD61Rw_IF0pP68Y9RJP-36" vertex="1">
          <mxGeometry x="-14.258636020931817" y="89.93475284534111" width="40" height="10" as="geometry" />
        </mxCell>
        <mxCell id="USD61Rw_IF0pP68Y9RJP-40" value="" style="line;strokeWidth=1;html=1;perimeter=backbonePerimeter;points=[];outlineConnect=0;rotation=-15;container=0;" parent="USD61Rw_IF0pP68Y9RJP-36" vertex="1">
          <mxGeometry x="4.471363979068201" y="99.93475284534111" width="76" height="10" as="geometry" />
        </mxCell>
        <mxCell id="USD61Rw_IF0pP68Y9RJP-41" value="" style="line;strokeWidth=1;html=1;perimeter=backbonePerimeter;points=[];outlineConnect=0;rotation=90;container=0;" parent="USD61Rw_IF0pP68Y9RJP-36" vertex="1">
          <mxGeometry x="43.49136397906818" y="55.18475284534111" width="70.5" height="10" as="geometry" />
        </mxCell>
        <mxCell id="USD61Rw_IF0pP68Y9RJP-42" value="" style="line;strokeWidth=1;html=1;perimeter=backbonePerimeter;points=[];outlineConnect=0;rotation=45;container=0;" parent="USD61Rw_IF0pP68Y9RJP-36" vertex="1">
          <mxGeometry x="3.0913639790682055" y="46.904752845341136" width="22.25" height="10" as="geometry" />
        </mxCell>
        <mxCell id="USD61Rw_IF0pP68Y9RJP-43" value="" style="line;strokeWidth=1;html=1;perimeter=backbonePerimeter;points=[];outlineConnect=0;rotation=-225;container=0;" parent="USD61Rw_IF0pP68Y9RJP-36" vertex="1">
          <mxGeometry x="2.7413639790681827" y="58.904752845341136" width="22.25" height="16.97" as="geometry" />
        </mxCell>
        <mxCell id="USD61Rw_IF0pP68Y9RJP-44" value="&lt;font style=&quot;font-size: 17px;&quot;&gt;Adder&lt;/font&gt;" style="text;html=1;align=center;verticalAlign=middle;resizable=0;points=[];autosize=1;strokeColor=none;fillColor=none;" parent="USD61Rw_IF0pP68Y9RJP-45" vertex="1">
          <mxGeometry x="13.741363979068183" y="45.93475284534111" width="70" height="30" as="geometry" />
        </mxCell>
        <mxCell id="USD61Rw_IF0pP68Y9RJP-191" style="edgeStyle=orthogonalEdgeStyle;rounded=0;orthogonalLoop=1;jettySize=auto;html=1;exitX=0.25;exitY=0;exitDx=0;exitDy=0;entryX=0.5;entryY=0;entryDx=0;entryDy=0;" parent="1" source="USD61Rw_IF0pP68Y9RJP-167" target="USD61Rw_IF0pP68Y9RJP-67" edge="1">
          <mxGeometry relative="1" as="geometry" />
        </mxCell>
        <mxCell id="USD61Rw_IF0pP68Y9RJP-67" value="" style="shape=ext;double=1;rounded=0;whiteSpace=wrap;html=1;" parent="1" vertex="1">
          <mxGeometry x="700" y="80" width="20" height="580" as="geometry" />
        </mxCell>
        <mxCell id="USD61Rw_IF0pP68Y9RJP-65" value="" style="group;" parent="1" vertex="1" connectable="0">
          <mxGeometry x="1350" y="360.19999999999993" width="83.74136397906818" height="119.59950569068224" as="geometry" />
        </mxCell>
        <object label="" placeholders="1" id="USD61Rw_IF0pP68Y9RJP-55">
          <mxCell style="group;rounded=0;" parent="USD61Rw_IF0pP68Y9RJP-65" vertex="1" connectable="0">
            <mxGeometry width="83.74136397906818" height="119.59950569068224" as="geometry" />
          </mxCell>
        </object>
        <mxCell id="USD61Rw_IF0pP68Y9RJP-56" value="" style="line;strokeWidth=1;html=1;perimeter=backbonePerimeter;points=[];outlineConnect=0;rotation=90;container=0;" parent="USD61Rw_IF0pP68Y9RJP-55" vertex="1">
          <mxGeometry x="-14.258636020931817" y="19.93475284534111" width="40" height="10" as="geometry" />
        </mxCell>
        <mxCell id="USD61Rw_IF0pP68Y9RJP-57" value="" style="line;strokeWidth=1;html=1;perimeter=backbonePerimeter;points=[];outlineConnect=0;rotation=15;direction=west;container=0;" parent="USD61Rw_IF0pP68Y9RJP-55" vertex="1">
          <mxGeometry x="4.471363979068201" y="9.664752845341127" width="76" height="10" as="geometry" />
        </mxCell>
        <mxCell id="USD61Rw_IF0pP68Y9RJP-58" value="" style="line;strokeWidth=1;html=1;perimeter=backbonePerimeter;points=[];outlineConnect=0;rotation=90;container=0;" parent="USD61Rw_IF0pP68Y9RJP-55" vertex="1">
          <mxGeometry x="-14.258636020931817" y="89.93475284534111" width="40" height="10" as="geometry" />
        </mxCell>
        <mxCell id="USD61Rw_IF0pP68Y9RJP-59" value="" style="line;strokeWidth=1;html=1;perimeter=backbonePerimeter;points=[];outlineConnect=0;rotation=-15;container=0;" parent="USD61Rw_IF0pP68Y9RJP-55" vertex="1">
          <mxGeometry x="4.471363979068201" y="99.93475284534111" width="76" height="10" as="geometry" />
        </mxCell>
        <mxCell id="USD61Rw_IF0pP68Y9RJP-60" value="" style="line;strokeWidth=1;html=1;perimeter=backbonePerimeter;points=[];outlineConnect=0;rotation=90;container=0;" parent="USD61Rw_IF0pP68Y9RJP-55" vertex="1">
          <mxGeometry x="43.49136397906818" y="55.18475284534111" width="70.5" height="10" as="geometry" />
        </mxCell>
        <mxCell id="USD61Rw_IF0pP68Y9RJP-61" value="" style="line;strokeWidth=1;html=1;perimeter=backbonePerimeter;points=[];outlineConnect=0;rotation=45;container=0;" parent="USD61Rw_IF0pP68Y9RJP-55" vertex="1">
          <mxGeometry x="3.0913639790682055" y="46.904752845341136" width="22.25" height="10" as="geometry" />
        </mxCell>
        <mxCell id="USD61Rw_IF0pP68Y9RJP-62" value="" style="line;strokeWidth=1;html=1;perimeter=backbonePerimeter;points=[];outlineConnect=0;rotation=-225;container=0;" parent="USD61Rw_IF0pP68Y9RJP-55" vertex="1">
          <mxGeometry x="2.7413639790681827" y="58.904752845341136" width="22.25" height="16.97" as="geometry" />
        </mxCell>
        <mxCell id="USD61Rw_IF0pP68Y9RJP-63" value="&lt;font style=&quot;font-size: 19px;&quot;&gt;ALU&lt;/font&gt;" style="text;html=1;align=center;verticalAlign=middle;resizable=0;points=[];autosize=1;strokeColor=none;fillColor=none;" parent="USD61Rw_IF0pP68Y9RJP-55" vertex="1">
          <mxGeometry x="20.741363979068183" y="39.804752845341" width="60" height="40" as="geometry" />
        </mxCell>
        <mxCell id="USD61Rw_IF0pP68Y9RJP-112" style="edgeStyle=orthogonalEdgeStyle;rounded=0;orthogonalLoop=1;jettySize=auto;html=1;exitX=0.25;exitY=0;exitDx=0;exitDy=0;" parent="1" source="USD61Rw_IF0pP68Y9RJP-69" target="USD61Rw_IF0pP68Y9RJP-58" edge="1">
          <mxGeometry relative="1" as="geometry">
            <Array as="points">
              <mxPoint x="1248" y="455" />
            </Array>
          </mxGeometry>
        </mxCell>
        <mxCell id="USD61Rw_IF0pP68Y9RJP-69" value="&lt;font style=&quot;font-size: 20px;&quot;&gt;MUX&lt;/font&gt;" style="rounded=0;whiteSpace=wrap;html=1;rotation=90;" parent="1" vertex="1">
          <mxGeometry x="1200" y="447.47" width="60" height="36.56" as="geometry" />
        </mxCell>
        <mxCell id="USD61Rw_IF0pP68Y9RJP-111" style="edgeStyle=orthogonalEdgeStyle;rounded=0;orthogonalLoop=1;jettySize=auto;html=1;exitX=0.671;exitY=-0.056;exitDx=0;exitDy=0;exitPerimeter=0;" parent="1" source="USD61Rw_IF0pP68Y9RJP-70" target="USD61Rw_IF0pP68Y9RJP-56" edge="1">
          <mxGeometry relative="1" as="geometry">
            <Array as="points" />
          </mxGeometry>
        </mxCell>
        <mxCell id="USD61Rw_IF0pP68Y9RJP-145" style="edgeStyle=orthogonalEdgeStyle;rounded=0;orthogonalLoop=1;jettySize=auto;html=1;entryX=0.5;entryY=1;entryDx=0;entryDy=0;startArrow=oval;startFill=1;" parent="1" target="USD61Rw_IF0pP68Y9RJP-70" edge="1">
          <mxGeometry relative="1" as="geometry">
            <mxPoint x="1170" y="740" as="sourcePoint" />
            <Array as="points">
              <mxPoint x="1170" y="374" />
            </Array>
          </mxGeometry>
        </mxCell>
        <mxCell id="USD61Rw_IF0pP68Y9RJP-70" value="&lt;font style=&quot;font-size: 20px;&quot;&gt;MUX&lt;/font&gt;" style="rounded=0;whiteSpace=wrap;html=1;rotation=90;" parent="1" vertex="1">
          <mxGeometry x="1200" y="355.96000000000004" width="60" height="36.56" as="geometry" />
        </mxCell>
        <mxCell id="USD61Rw_IF0pP68Y9RJP-127" style="edgeStyle=orthogonalEdgeStyle;rounded=0;orthogonalLoop=1;jettySize=auto;html=1;entryX=-0.067;entryY=0.94;entryDx=0;entryDy=0;entryPerimeter=0;" parent="1" source="USD61Rw_IF0pP68Y9RJP-71" target="USD61Rw_IF0pP68Y9RJP-75" edge="1">
          <mxGeometry relative="1" as="geometry">
            <mxPoint x="1550" y="648.2800000000002" as="targetPoint" />
          </mxGeometry>
        </mxCell>
        <mxCell id="USD61Rw_IF0pP68Y9RJP-71" value="&lt;font style=&quot;font-size: 20px;&quot;&gt;MUX&lt;/font&gt;" style="rounded=0;whiteSpace=wrap;html=1;rotation=90;" parent="1" vertex="1">
          <mxGeometry x="1110" y="630" width="60" height="36.56" as="geometry" />
        </mxCell>
        <mxCell id="USD61Rw_IF0pP68Y9RJP-113" style="edgeStyle=orthogonalEdgeStyle;rounded=0;orthogonalLoop=1;jettySize=auto;html=1;" parent="1" source="USD61Rw_IF0pP68Y9RJP-73" target="USD61Rw_IF0pP68Y9RJP-37" edge="1">
          <mxGeometry relative="1" as="geometry">
            <Array as="points">
              <mxPoint x="1170" y="125" />
              <mxPoint x="1170" y="125" />
            </Array>
          </mxGeometry>
        </mxCell>
        <mxCell id="USD61Rw_IF0pP68Y9RJP-192" style="edgeStyle=orthogonalEdgeStyle;rounded=0;orthogonalLoop=1;jettySize=auto;html=1;exitX=0.5;exitY=0;exitDx=0;exitDy=0;entryX=0.75;entryY=0;entryDx=0;entryDy=0;startArrow=classic;startFill=1;" parent="1" source="USD61Rw_IF0pP68Y9RJP-73" target="USD61Rw_IF0pP68Y9RJP-167" edge="1">
          <mxGeometry relative="1" as="geometry">
            <Array as="points">
              <mxPoint x="1090" y="-300" />
              <mxPoint x="1315" y="-300" />
            </Array>
          </mxGeometry>
        </mxCell>
        <mxCell id="USD61Rw_IF0pP68Y9RJP-73" value="" style="shape=ext;double=1;rounded=0;whiteSpace=wrap;html=1;" parent="1" vertex="1">
          <mxGeometry x="1080" y="80" width="20" height="610" as="geometry" />
        </mxCell>
        <mxCell id="USD61Rw_IF0pP68Y9RJP-74" value="&lt;span style=&quot;font-size: 22px;&quot;&gt;Data Memory&lt;br&gt;&lt;/span&gt;" style="rounded=0;whiteSpace=wrap;html=1;rotation=0;" parent="1" vertex="1">
          <mxGeometry x="1690" y="400.0000000000001" width="120" height="60" as="geometry" />
        </mxCell>
        <mxCell id="USD61Rw_IF0pP68Y9RJP-75" value="" style="shape=ext;double=1;rounded=0;whiteSpace=wrap;html=1;" parent="1" vertex="1">
          <mxGeometry x="1560" y="75.07" width="20" height="610" as="geometry" />
        </mxCell>
        <mxCell id="USD61Rw_IF0pP68Y9RJP-161" style="rounded=0;orthogonalLoop=1;jettySize=auto;html=1;exitX=0.5;exitY=0;exitDx=0;exitDy=0;strokeColor=default;endArrow=classic;endFill=1;edgeStyle=orthogonalEdgeStyle;" parent="1" source="USD61Rw_IF0pP68Y9RJP-76" edge="1">
          <mxGeometry relative="1" as="geometry">
            <mxPoint x="810" y="570" as="targetPoint" />
            <Array as="points">
              <mxPoint x="2018" y="392" />
              <mxPoint x="2018" y="740" />
              <mxPoint x="740" y="740" />
              <mxPoint x="740" y="570" />
            </Array>
          </mxGeometry>
        </mxCell>
        <mxCell id="USD61Rw_IF0pP68Y9RJP-76" value="&lt;font style=&quot;font-size: 20px;&quot;&gt;MUX&lt;/font&gt;" style="rounded=0;whiteSpace=wrap;html=1;rotation=90;" parent="1" vertex="1">
          <mxGeometry x="1950" y="373.51000000000005" width="60" height="36.56" as="geometry" />
        </mxCell>
        <mxCell id="USD61Rw_IF0pP68Y9RJP-77" value="" style="shape=ext;double=1;rounded=0;whiteSpace=wrap;html=1;" parent="1" vertex="1">
          <mxGeometry x="1870" y="90" width="20" height="595.07" as="geometry" />
        </mxCell>
        <mxCell id="USD61Rw_IF0pP68Y9RJP-80" style="edgeStyle=orthogonalEdgeStyle;rounded=0;orthogonalLoop=1;jettySize=auto;html=1;" parent="1" source="USD61Rw_IF0pP68Y9RJP-1" edge="1">
          <mxGeometry relative="1" as="geometry">
            <mxPoint x="370" y="550" as="targetPoint" />
            <Array as="points">
              <mxPoint x="290" y="550" />
              <mxPoint x="370" y="550" />
            </Array>
          </mxGeometry>
        </mxCell>
        <mxCell id="USD61Rw_IF0pP68Y9RJP-83" value="2" style="text;strokeColor=none;fillColor=none;html=1;fontSize=24;fontStyle=1;verticalAlign=middle;align=center;" parent="1" vertex="1">
          <mxGeometry x="470" y="385" width="40" height="40" as="geometry" />
        </mxCell>
        <mxCell id="USD61Rw_IF0pP68Y9RJP-84" style="edgeStyle=orthogonalEdgeStyle;rounded=0;orthogonalLoop=1;jettySize=auto;html=1;exitX=0.419;exitY=0.02;exitDx=0;exitDy=0;exitPerimeter=0;entryX=-0.061;entryY=0.793;entryDx=0;entryDy=0;entryPerimeter=0;" parent="1" source="USD61Rw_IF0pP68Y9RJP-3" target="USD61Rw_IF0pP68Y9RJP-67" edge="1">
          <mxGeometry relative="1" as="geometry">
            <mxPoint x="700" y="570" as="targetPoint" />
            <Array as="points">
              <mxPoint x="600" y="540" />
              <mxPoint x="600" y="540" />
            </Array>
          </mxGeometry>
        </mxCell>
        <mxCell id="USD61Rw_IF0pP68Y9RJP-88" style="edgeStyle=orthogonalEdgeStyle;rounded=0;orthogonalLoop=1;jettySize=auto;html=1;entryX=-0.017;entryY=0.393;entryDx=0;entryDy=0;entryPerimeter=0;" parent="1" target="USD61Rw_IF0pP68Y9RJP-67" edge="1">
          <mxGeometry relative="1" as="geometry">
            <mxPoint x="570" y="308" as="sourcePoint" />
            <Array as="points">
              <mxPoint x="570" y="308" />
            </Array>
          </mxGeometry>
        </mxCell>
        <mxCell id="USD61Rw_IF0pP68Y9RJP-91" style="edgeStyle=orthogonalEdgeStyle;rounded=0;orthogonalLoop=1;jettySize=auto;html=1;exitX=1;exitY=0.75;exitDx=0;exitDy=0;entryX=-0.036;entryY=0.375;entryDx=0;entryDy=0;entryPerimeter=0;" parent="1" source="USD61Rw_IF0pP68Y9RJP-67" target="USD61Rw_IF0pP68Y9RJP-4" edge="1">
          <mxGeometry relative="1" as="geometry" />
        </mxCell>
        <mxCell id="USD61Rw_IF0pP68Y9RJP-95" style="edgeStyle=orthogonalEdgeStyle;rounded=0;orthogonalLoop=1;jettySize=auto;html=1;exitX=1;exitY=0.75;exitDx=0;exitDy=0;entryX=-0.036;entryY=0.375;entryDx=0;entryDy=0;entryPerimeter=0;" parent="1" edge="1">
          <mxGeometry relative="1" as="geometry">
            <mxPoint x="720" y="484.03" as="sourcePoint" />
            <mxPoint x="807" y="484.03" as="targetPoint" />
          </mxGeometry>
        </mxCell>
        <mxCell id="USD61Rw_IF0pP68Y9RJP-104" style="edgeStyle=orthogonalEdgeStyle;rounded=0;orthogonalLoop=1;jettySize=auto;html=1;entryX=-0.033;entryY=0.074;entryDx=0;entryDy=0;entryPerimeter=0;" parent="1" source="USD61Rw_IF0pP68Y9RJP-67" target="USD61Rw_IF0pP68Y9RJP-73" edge="1">
          <mxGeometry relative="1" as="geometry">
            <Array as="points">
              <mxPoint x="800" y="310" />
              <mxPoint x="800" y="125" />
            </Array>
          </mxGeometry>
        </mxCell>
        <mxCell id="USD61Rw_IF0pP68Y9RJP-105" value="" style="endArrow=classic;html=1;rounded=0;exitX=1.021;exitY=0.905;exitDx=0;exitDy=0;exitPerimeter=0;entryX=0.218;entryY=0.987;entryDx=0;entryDy=0;entryPerimeter=0;" parent="1" source="USD61Rw_IF0pP68Y9RJP-73" target="USD61Rw_IF0pP68Y9RJP-71" edge="1">
          <mxGeometry width="50" height="50" relative="1" as="geometry">
            <mxPoint x="1100" y="634" as="sourcePoint" />
            <mxPoint x="1120" y="632" as="targetPoint" />
          </mxGeometry>
        </mxCell>
        <mxCell id="USD61Rw_IF0pP68Y9RJP-106" value="" style="endArrow=classic;html=1;rounded=0;exitX=0.982;exitY=0.947;exitDx=0;exitDy=0;exitPerimeter=0;entryX=0.646;entryY=0.98;entryDx=0;entryDy=0;entryPerimeter=0;" parent="1" source="USD61Rw_IF0pP68Y9RJP-73" target="USD61Rw_IF0pP68Y9RJP-71" edge="1">
          <mxGeometry width="50" height="50" relative="1" as="geometry">
            <mxPoint x="1101" y="659" as="sourcePoint" />
            <mxPoint x="1120" y="658" as="targetPoint" />
          </mxGeometry>
        </mxCell>
        <mxCell id="USD61Rw_IF0pP68Y9RJP-107" value="" style="endArrow=classic;html=1;rounded=0;" parent="1" edge="1">
          <mxGeometry width="50" height="50" relative="1" as="geometry">
            <mxPoint x="1100" y="449.19000000000005" as="sourcePoint" />
            <mxPoint x="1210" y="450" as="targetPoint" />
          </mxGeometry>
        </mxCell>
        <mxCell id="USD61Rw_IF0pP68Y9RJP-108" value="" style="endArrow=classic;html=1;rounded=0;" parent="1" edge="1">
          <mxGeometry width="50" height="50" relative="1" as="geometry">
            <mxPoint x="1100" y="355.96000000000004" as="sourcePoint" />
            <mxPoint x="1210" y="356.77" as="targetPoint" />
          </mxGeometry>
        </mxCell>
        <mxCell id="USD61Rw_IF0pP68Y9RJP-109" value="" style="endArrow=classic;html=1;rounded=0;" parent="1" edge="1">
          <mxGeometry width="50" height="50" relative="1" as="geometry">
            <mxPoint x="1100" y="479.80000000000007" as="sourcePoint" />
            <mxPoint x="1210" y="480.61" as="targetPoint" />
          </mxGeometry>
        </mxCell>
        <mxCell id="USD61Rw_IF0pP68Y9RJP-114" value="" style="endArrow=classic;html=1;rounded=0;startArrow=oval;startFill=1;" parent="1" target="USD61Rw_IF0pP68Y9RJP-39" edge="1">
          <mxGeometry width="50" height="50" relative="1" as="geometry">
            <mxPoint x="1140" y="480" as="sourcePoint" />
            <mxPoint x="1350" y="190" as="targetPoint" />
            <Array as="points">
              <mxPoint x="1140" y="340" />
              <mxPoint x="1140" y="190" />
            </Array>
          </mxGeometry>
        </mxCell>
        <mxCell id="USD61Rw_IF0pP68Y9RJP-116" style="edgeStyle=orthogonalEdgeStyle;rounded=0;orthogonalLoop=1;jettySize=auto;html=1;" parent="1" edge="1">
          <mxGeometry relative="1" as="geometry">
            <mxPoint x="1560" y="419.31999999999994" as="targetPoint" />
            <mxPoint x="1429.7399999999998" y="420.2023529411765" as="sourcePoint" />
          </mxGeometry>
        </mxCell>
        <mxCell id="USD61Rw_IF0pP68Y9RJP-119" value="" style="endArrow=classic;html=1;rounded=0;entryX=-0.132;entryY=0.902;entryDx=0;entryDy=0;entryPerimeter=0;startArrow=oval;startFill=1;" parent="1" target="USD61Rw_IF0pP68Y9RJP-73" edge="1">
          <mxGeometry width="50" height="50" relative="1" as="geometry">
            <mxPoint x="730" y="630" as="sourcePoint" />
            <mxPoint x="970" y="530" as="targetPoint" />
          </mxGeometry>
        </mxCell>
        <mxCell id="USD61Rw_IF0pP68Y9RJP-199" style="edgeStyle=orthogonalEdgeStyle;rounded=0;orthogonalLoop=1;jettySize=auto;html=1;exitX=0.5;exitY=1;exitDx=0;exitDy=0;entryX=0;entryY=0.5;entryDx=0;entryDy=0;" parent="1" source="USD61Rw_IF0pP68Y9RJP-126" target="USD61Rw_IF0pP68Y9RJP-70" edge="1">
          <mxGeometry relative="1" as="geometry">
            <Array as="points">
              <mxPoint x="1270" y="87" />
              <mxPoint x="1270" y="215" />
              <mxPoint x="1230" y="215" />
            </Array>
          </mxGeometry>
        </mxCell>
        <mxCell id="USD61Rw_IF0pP68Y9RJP-126" value="&lt;span style=&quot;font-size: 20px;&quot;&gt;FU&lt;/span&gt;" style="rounded=0;whiteSpace=wrap;html=1;rotation=0;" parent="1" vertex="1">
          <mxGeometry x="1250" y="50.00000000000006" width="60" height="36.56" as="geometry" />
        </mxCell>
        <mxCell id="USD61Rw_IF0pP68Y9RJP-128" style="edgeStyle=orthogonalEdgeStyle;rounded=0;orthogonalLoop=1;jettySize=auto;html=1;" parent="1" source="USD61Rw_IF0pP68Y9RJP-77" edge="1">
          <mxGeometry relative="1" as="geometry">
            <mxPoint x="1960" y="380" as="targetPoint" />
            <Array as="points">
              <mxPoint x="1910" y="380" />
              <mxPoint x="1910" y="380" />
            </Array>
          </mxGeometry>
        </mxCell>
        <mxCell id="USD61Rw_IF0pP68Y9RJP-129" style="edgeStyle=orthogonalEdgeStyle;rounded=0;orthogonalLoop=1;jettySize=auto;html=1;" parent="1" edge="1">
          <mxGeometry relative="1" as="geometry">
            <mxPoint x="1890" y="409.24" as="sourcePoint" />
            <mxPoint x="1960" y="410" as="targetPoint" />
          </mxGeometry>
        </mxCell>
        <mxCell id="USD61Rw_IF0pP68Y9RJP-123" value="" style="endArrow=classic;html=1;rounded=0;entryX=-0.014;entryY=0.871;entryDx=0;entryDy=0;entryPerimeter=0;edgeStyle=orthogonalEdgeStyle;startArrow=oval;startFill=1;" parent="1" edge="1">
          <mxGeometry width="50" height="50" relative="1" as="geometry">
            <mxPoint x="790" y="484" as="sourcePoint" />
            <mxPoint x="960" y="552.75" as="targetPoint" />
            <Array as="points">
              <mxPoint x="790" y="610" />
              <mxPoint x="930" y="610" />
              <mxPoint x="930" y="553" />
            </Array>
          </mxGeometry>
        </mxCell>
        <mxCell id="USD61Rw_IF0pP68Y9RJP-131" value="" style="endArrow=classic;html=1;rounded=0;entryX=-0.1;entryY=0.911;entryDx=0;entryDy=0;entryPerimeter=0;startArrow=oval;startFill=1;" parent="1" target="USD61Rw_IF0pP68Y9RJP-75" edge="1">
          <mxGeometry width="50" height="50" relative="1" as="geometry">
            <mxPoint x="1190" y="450" as="sourcePoint" />
            <mxPoint x="1390" y="550" as="targetPoint" />
            <Array as="points">
              <mxPoint x="1190" y="630" />
            </Array>
          </mxGeometry>
        </mxCell>
        <mxCell id="USD61Rw_IF0pP68Y9RJP-132" value="" style="endArrow=classic;html=1;rounded=0;entryX=0.04;entryY=0.948;entryDx=0;entryDy=0;entryPerimeter=0;" parent="1" target="USD61Rw_IF0pP68Y9RJP-77" edge="1">
          <mxGeometry width="50" height="50" relative="1" as="geometry">
            <mxPoint x="1580" y="650" as="sourcePoint" />
            <mxPoint x="1630" y="600" as="targetPoint" />
          </mxGeometry>
        </mxCell>
        <mxCell id="USD61Rw_IF0pP68Y9RJP-133" value="" style="endArrow=classic;html=1;rounded=0;entryX=0;entryY=0.75;entryDx=0;entryDy=0;" parent="1" target="USD61Rw_IF0pP68Y9RJP-74" edge="1">
          <mxGeometry width="50" height="50" relative="1" as="geometry">
            <mxPoint x="1580" y="630" as="sourcePoint" />
            <mxPoint x="1871" y="633" as="targetPoint" />
            <Array as="points">
              <mxPoint x="1610" y="630" />
              <mxPoint x="1610" y="445" />
            </Array>
          </mxGeometry>
        </mxCell>
        <mxCell id="USD61Rw_IF0pP68Y9RJP-134" value="" style="endArrow=classic;html=1;rounded=0;exitX=0.98;exitY=0.572;exitDx=0;exitDy=0;exitPerimeter=0;entryX=0;entryY=0.357;entryDx=0;entryDy=0;entryPerimeter=0;" parent="1" source="USD61Rw_IF0pP68Y9RJP-75" target="USD61Rw_IF0pP68Y9RJP-74" edge="1">
          <mxGeometry width="50" height="50" relative="1" as="geometry">
            <mxPoint x="1780" y="510" as="sourcePoint" />
            <mxPoint x="1830" y="460" as="targetPoint" />
          </mxGeometry>
        </mxCell>
        <mxCell id="USD61Rw_IF0pP68Y9RJP-135" style="edgeStyle=orthogonalEdgeStyle;rounded=0;orthogonalLoop=1;jettySize=auto;html=1;exitX=0.999;exitY=0.314;exitDx=0;exitDy=0;entryX=0;entryY=0.5;entryDx=0;entryDy=0;exitPerimeter=0;" parent="1" source="USD61Rw_IF0pP68Y9RJP-6" target="USD61Rw_IF0pP68Y9RJP-76" edge="1">
          <mxGeometry relative="1" as="geometry">
            <Array as="points">
              <mxPoint x="1381" y="-140" />
              <mxPoint x="1980" y="-140" />
            </Array>
          </mxGeometry>
        </mxCell>
        <mxCell id="USD61Rw_IF0pP68Y9RJP-136" style="edgeStyle=orthogonalEdgeStyle;rounded=0;orthogonalLoop=1;jettySize=auto;html=1;" parent="1" edge="1">
          <mxGeometry relative="1" as="geometry">
            <mxPoint x="1380" y="-120" as="sourcePoint" />
            <mxPoint x="1748.8" y="400" as="targetPoint" />
            <Array as="points">
              <mxPoint x="1380" y="-120" />
              <mxPoint x="1749" y="-120" />
            </Array>
          </mxGeometry>
        </mxCell>
        <mxCell id="USD61Rw_IF0pP68Y9RJP-137" value="" style="endArrow=classic;html=1;rounded=0;entryX=0.75;entryY=1;entryDx=0;entryDy=0;startArrow=oval;startFill=1;" parent="1" target="USD61Rw_IF0pP68Y9RJP-70" edge="1">
          <mxGeometry width="50" height="50" relative="1" as="geometry">
            <mxPoint x="1650" y="420" as="sourcePoint" />
            <mxPoint x="1390" y="500" as="targetPoint" />
            <Array as="points">
              <mxPoint x="1650" y="700" />
              <mxPoint x="1180" y="700" />
              <mxPoint x="1180" y="540" />
              <mxPoint x="1180" y="389" />
            </Array>
          </mxGeometry>
        </mxCell>
        <mxCell id="USD61Rw_IF0pP68Y9RJP-138" style="edgeStyle=orthogonalEdgeStyle;rounded=0;orthogonalLoop=1;jettySize=auto;html=1;exitX=1;exitY=0.25;exitDx=0;exitDy=0;" parent="1" source="USD61Rw_IF0pP68Y9RJP-74" edge="1">
          <mxGeometry relative="1" as="geometry">
            <mxPoint x="1870" y="380" as="targetPoint" />
            <Array as="points">
              <mxPoint x="1820" y="415" />
              <mxPoint x="1820" y="380" />
            </Array>
          </mxGeometry>
        </mxCell>
        <mxCell id="USD61Rw_IF0pP68Y9RJP-139" value="" style="endArrow=classic;html=1;rounded=0;startArrow=oval;startFill=1;" parent="1" edge="1">
          <mxGeometry width="50" height="50" relative="1" as="geometry">
            <mxPoint x="1650" y="500" as="sourcePoint" />
            <mxPoint x="1870" y="407" as="targetPoint" />
            <Array as="points">
              <mxPoint x="1830" y="500" />
              <mxPoint x="1830" y="407" />
            </Array>
          </mxGeometry>
        </mxCell>
        <mxCell id="USD61Rw_IF0pP68Y9RJP-140" value="" style="edgeStyle=segmentEdgeStyle;endArrow=classic;html=1;curved=0;rounded=0;endSize=8;startSize=8;entryX=1;entryY=0.25;entryDx=0;entryDy=0;startArrow=oval;startFill=1;endFill=1;" parent="1" target="USD61Rw_IF0pP68Y9RJP-126" edge="1">
          <mxGeometry width="50" height="50" relative="1" as="geometry">
            <mxPoint x="1630" y="650" as="sourcePoint" />
            <mxPoint x="1620" y="380" as="targetPoint" />
            <Array as="points">
              <mxPoint x="1630" y="50" />
              <mxPoint x="1340" y="50" />
              <mxPoint x="1340" y="59" />
            </Array>
          </mxGeometry>
        </mxCell>
        <mxCell id="USD61Rw_IF0pP68Y9RJP-141" value="" style="endArrow=classic;html=1;rounded=0;entryX=1;entryY=0.5;entryDx=0;entryDy=0;startArrow=oval;startFill=1;" parent="1" target="USD61Rw_IF0pP68Y9RJP-126" edge="1">
          <mxGeometry width="50" height="50" relative="1" as="geometry">
            <mxPoint x="1910" y="650" as="sourcePoint" />
            <mxPoint x="1910" y="480" as="targetPoint" />
            <Array as="points">
              <mxPoint x="1910" y="60" />
              <mxPoint x="1610" y="60" />
              <mxPoint x="1460" y="60" />
              <mxPoint x="1380" y="60" />
              <mxPoint x="1380" y="68" />
            </Array>
          </mxGeometry>
        </mxCell>
        <mxCell id="USD61Rw_IF0pP68Y9RJP-143" value="" style="endArrow=classic;html=1;rounded=0;exitX=0.75;exitY=1;exitDx=0;exitDy=0;entryX=0;entryY=0.25;entryDx=0;entryDy=0;" parent="1" source="USD61Rw_IF0pP68Y9RJP-126" target="USD61Rw_IF0pP68Y9RJP-69" edge="1">
          <mxGeometry width="50" height="50" relative="1" as="geometry">
            <mxPoint x="1275" y="97" as="sourcePoint" />
            <mxPoint x="1240" y="354" as="targetPoint" />
            <Array as="points">
              <mxPoint x="1295" y="170" />
              <mxPoint x="1280" y="170" />
              <mxPoint x="1280" y="420" />
              <mxPoint x="1240" y="420" />
            </Array>
          </mxGeometry>
        </mxCell>
        <mxCell id="USD61Rw_IF0pP68Y9RJP-146" value="" style="endArrow=classic;html=1;rounded=0;entryX=0.573;entryY=1.004;entryDx=0;entryDy=0;entryPerimeter=0;startArrow=oval;startFill=1;" parent="1" target="USD61Rw_IF0pP68Y9RJP-69" edge="1">
          <mxGeometry width="50" height="50" relative="1" as="geometry">
            <mxPoint x="1180" y="470" as="sourcePoint" />
            <mxPoint x="1350" y="440" as="targetPoint" />
          </mxGeometry>
        </mxCell>
        <mxCell id="USD61Rw_IF0pP68Y9RJP-147" value="" style="endArrow=classic;html=1;rounded=0;entryX=1;entryY=0.5;entryDx=0;entryDy=0;startArrow=oval;startFill=1;" parent="1" target="USD61Rw_IF0pP68Y9RJP-69" edge="1">
          <mxGeometry width="50" height="50" relative="1" as="geometry">
            <mxPoint x="1230" y="700" as="sourcePoint" />
            <mxPoint x="1360" y="600" as="targetPoint" />
          </mxGeometry>
        </mxCell>
        <mxCell id="USD61Rw_IF0pP68Y9RJP-125" style="edgeStyle=orthogonalEdgeStyle;rounded=0;orthogonalLoop=1;jettySize=auto;html=1;entryX=1;entryY=0.5;entryDx=0;entryDy=0;" parent="1" source="USD61Rw_IF0pP68Y9RJP-59" target="USD61Rw_IF0pP68Y9RJP-6" edge="1">
          <mxGeometry relative="1" as="geometry">
            <Array as="points">
              <mxPoint x="1393" y="490" />
              <mxPoint x="1510" y="490" />
              <mxPoint x="1510" y="-105" />
            </Array>
          </mxGeometry>
        </mxCell>
        <mxCell id="USD61Rw_IF0pP68Y9RJP-149" value="" style="endArrow=oval;html=1;rounded=0;exitX=1.022;exitY=0.793;exitDx=0;exitDy=0;exitPerimeter=0;endFill=1;" parent="1" source="USD61Rw_IF0pP68Y9RJP-67" edge="1">
          <mxGeometry width="50" height="50" relative="1" as="geometry">
            <mxPoint x="720" y="570" as="sourcePoint" />
            <mxPoint x="730" y="540" as="targetPoint" />
          </mxGeometry>
        </mxCell>
        <mxCell id="USD61Rw_IF0pP68Y9RJP-150" value="" style="endArrow=none;html=1;rounded=0;exitX=1.018;exitY=0.095;exitDx=0;exitDy=0;exitPerimeter=0;entryX=0.029;entryY=0.451;entryDx=0;entryDy=0;entryPerimeter=0;" parent="1" source="USD61Rw_IF0pP68Y9RJP-4" target="USD61Rw_IF0pP68Y9RJP-73" edge="1">
          <mxGeometry width="50" height="50" relative="1" as="geometry">
            <mxPoint x="980" y="480" as="sourcePoint" />
            <mxPoint x="1030" y="430" as="targetPoint" />
            <Array as="points">
              <mxPoint x="940" y="481" />
              <mxPoint x="940" y="380" />
              <mxPoint x="1070" y="380" />
              <mxPoint x="1070" y="355" />
            </Array>
          </mxGeometry>
        </mxCell>
        <mxCell id="USD61Rw_IF0pP68Y9RJP-151" value="" style="endArrow=none;html=1;rounded=0;entryX=-0.044;entryY=0.605;entryDx=0;entryDy=0;entryPerimeter=0;exitX=1.01;exitY=0.348;exitDx=0;exitDy=0;exitPerimeter=0;" parent="1" source="USD61Rw_IF0pP68Y9RJP-4" target="USD61Rw_IF0pP68Y9RJP-73" edge="1">
          <mxGeometry width="50" height="50" relative="1" as="geometry">
            <mxPoint x="1030" y="480" as="sourcePoint" />
            <mxPoint x="1080" y="430" as="targetPoint" />
            <Array as="points">
              <mxPoint x="950" y="512" />
              <mxPoint x="950" y="450" />
            </Array>
          </mxGeometry>
        </mxCell>
        <mxCell id="USD61Rw_IF0pP68Y9RJP-152" value="" style="endArrow=none;html=1;rounded=0;exitX=1;exitY=0.5;exitDx=0;exitDy=0;" parent="1" source="USD61Rw_IF0pP68Y9RJP-7" edge="1">
          <mxGeometry width="50" height="50" relative="1" as="geometry">
            <mxPoint x="1030" y="480" as="sourcePoint" />
            <mxPoint x="1080" y="480" as="targetPoint" />
            <Array as="points">
              <mxPoint x="1060" y="560" />
              <mxPoint x="1060" y="480" />
            </Array>
          </mxGeometry>
        </mxCell>
        <mxCell id="USD61Rw_IF0pP68Y9RJP-82" style="edgeStyle=orthogonalEdgeStyle;rounded=0;orthogonalLoop=1;jettySize=auto;html=1;entryX=0.477;entryY=0.041;entryDx=0;entryDy=0;entryPerimeter=0;endArrow=none;endFill=0;startArrow=classic;startFill=1;" parent="1" source="USD61Rw_IF0pP68Y9RJP-14" target="USD61Rw_IF0pP68Y9RJP-83" edge="1">
          <mxGeometry relative="1" as="geometry">
            <mxPoint x="494.9986360209318" y="379.9952471546589" as="targetPoint" />
            <Array as="points">
              <mxPoint x="470" y="335" />
              <mxPoint x="470" y="370" />
              <mxPoint x="490" y="370" />
              <mxPoint x="490" y="380" />
              <mxPoint x="489" y="380" />
            </Array>
          </mxGeometry>
        </mxCell>
        <mxCell id="USD61Rw_IF0pP68Y9RJP-165" value="" style="endArrow=classic;html=1;rounded=0;exitX=1.162;exitY=0.906;exitDx=0;exitDy=0;exitPerimeter=0;endFill=1;edgeStyle=orthogonalEdgeStyle;entryX=0;entryY=0.821;entryDx=0;entryDy=0;entryPerimeter=0;" parent="1" source="USD61Rw_IF0pP68Y9RJP-73" target="USD61Rw_IF0pP68Y9RJP-126" edge="1">
          <mxGeometry width="50" height="50" relative="1" as="geometry">
            <mxPoint x="1110" y="640" as="sourcePoint" />
            <mxPoint x="1230" y="80" as="targetPoint" />
            <Array as="points">
              <mxPoint x="1103" y="80" />
            </Array>
          </mxGeometry>
        </mxCell>
        <mxCell id="USD61Rw_IF0pP68Y9RJP-166" value="" style="endArrow=classic;html=1;rounded=0;edgeStyle=orthogonalEdgeStyle;entryX=0.156;entryY=0.969;entryDx=0;entryDy=0;entryPerimeter=0;endFill=1;" parent="1" target="USD61Rw_IF0pP68Y9RJP-126" edge="1">
          <mxGeometry width="50" height="50" relative="1" as="geometry">
            <mxPoint x="1110" y="658" as="sourcePoint" />
            <mxPoint x="1110" y="100" as="targetPoint" />
            <Array as="points">
              <mxPoint x="1110" y="100" />
              <mxPoint x="1259" y="100" />
            </Array>
          </mxGeometry>
        </mxCell>
        <mxCell id="USD61Rw_IF0pP68Y9RJP-194" style="edgeStyle=orthogonalEdgeStyle;rounded=0;orthogonalLoop=1;jettySize=auto;html=1;exitX=0;exitY=0.25;exitDx=0;exitDy=0;endArrow=oval;endFill=1;" parent="1" source="USD61Rw_IF0pP68Y9RJP-167" edge="1">
          <mxGeometry relative="1" as="geometry">
            <mxPoint x="730" y="-59.99999999999977" as="targetPoint" />
            <Array as="points">
              <mxPoint x="731" y="-241" />
              <mxPoint x="731" y="-60" />
            </Array>
          </mxGeometry>
        </mxCell>
        <mxCell id="USD61Rw_IF0pP68Y9RJP-167" value="&lt;span style=&quot;font-size: 20px;&quot;&gt;HU&lt;/span&gt;" style="rounded=0;whiteSpace=wrap;html=1;rotation=0;" parent="1" vertex="1">
          <mxGeometry x="1270" y="-249.99999999999994" width="60" height="36.56" as="geometry" />
        </mxCell>
        <mxCell id="USD61Rw_IF0pP68Y9RJP-115" style="edgeStyle=orthogonalEdgeStyle;rounded=0;orthogonalLoop=1;jettySize=auto;html=1;entryX=0.336;entryY=0.045;entryDx=0;entryDy=0;entryPerimeter=0;exitX=1.039;exitY=0.141;exitDx=0;exitDy=0;exitPerimeter=0;" parent="1" source="USD61Rw_IF0pP68Y9RJP-75" target="USD61Rw_IF0pP68Y9RJP-1" edge="1">
          <mxGeometry relative="1" as="geometry">
            <mxPoint x="270" y="340" as="targetPoint" />
            <mxPoint x="1429.7399999999998" y="160.88235294117658" as="sourcePoint" />
            <Array as="points">
              <mxPoint x="1609.9986360209318" y="160.9952471546589" />
              <mxPoint x="1609.9986360209318" y="19.995247154658898" />
              <mxPoint x="269.9986360209318" y="19.995247154658898" />
            </Array>
          </mxGeometry>
        </mxCell>
        <mxCell id="USD61Rw_IF0pP68Y9RJP-171" style="edgeStyle=orthogonalEdgeStyle;rounded=0;orthogonalLoop=1;jettySize=auto;html=1;entryX=0.25;entryY=1;entryDx=0;entryDy=0;startArrow=oval;startFill=1;" parent="1" target="USD61Rw_IF0pP68Y9RJP-168" edge="1">
          <mxGeometry relative="1" as="geometry">
            <mxPoint x="1321" y="124" as="sourcePoint" />
            <Array as="points">
              <mxPoint x="1320" y="124" />
              <mxPoint x="1320" y="90" />
              <mxPoint x="1440" y="90" />
              <mxPoint x="1440" y="150" />
            </Array>
          </mxGeometry>
        </mxCell>
        <mxCell id="USD61Rw_IF0pP68Y9RJP-168" value="&lt;font style=&quot;font-size: 13px;&quot;&gt;MUX&lt;/font&gt;" style="rounded=0;whiteSpace=wrap;html=1;rotation=90;" parent="1" vertex="1">
          <mxGeometry x="1440" y="150.76" width="40" height="18.08" as="geometry" />
        </mxCell>
        <mxCell id="USD61Rw_IF0pP68Y9RJP-169" style="edgeStyle=orthogonalEdgeStyle;rounded=0;orthogonalLoop=1;jettySize=auto;html=1;entryX=0.5;entryY=1;entryDx=0;entryDy=0;" parent="1" source="USD61Rw_IF0pP68Y9RJP-41" target="USD61Rw_IF0pP68Y9RJP-168" edge="1">
          <mxGeometry relative="1" as="geometry">
            <Array as="points">
              <mxPoint x="1440" y="160" />
              <mxPoint x="1440" y="160" />
            </Array>
          </mxGeometry>
        </mxCell>
        <mxCell id="USD61Rw_IF0pP68Y9RJP-170" style="edgeStyle=orthogonalEdgeStyle;rounded=0;orthogonalLoop=1;jettySize=auto;html=1;exitX=0.5;exitY=0;exitDx=0;exitDy=0;entryX=0.05;entryY=0.138;entryDx=0;entryDy=0;entryPerimeter=0;" parent="1" source="USD61Rw_IF0pP68Y9RJP-168" target="USD61Rw_IF0pP68Y9RJP-75" edge="1">
          <mxGeometry relative="1" as="geometry" />
        </mxCell>
        <mxCell id="USD61Rw_IF0pP68Y9RJP-172" style="edgeStyle=orthogonalEdgeStyle;rounded=0;orthogonalLoop=1;jettySize=auto;html=1;exitX=0;exitY=0.5;exitDx=0;exitDy=0;entryX=1;entryY=0.626;entryDx=0;entryDy=0;entryPerimeter=0;endArrow=none;endFill=0;" parent="1" source="USD61Rw_IF0pP68Y9RJP-71" target="USD61Rw_IF0pP68Y9RJP-6" edge="1">
          <mxGeometry relative="1" as="geometry">
            <Array as="points">
              <mxPoint x="1140" y="510" />
              <mxPoint x="1150" y="510" />
              <mxPoint x="1150" y="304" />
              <mxPoint x="1530" y="304" />
              <mxPoint x="1530" y="-81" />
            </Array>
          </mxGeometry>
        </mxCell>
        <mxCell id="USD61Rw_IF0pP68Y9RJP-173" style="edgeStyle=orthogonalEdgeStyle;rounded=0;orthogonalLoop=1;jettySize=auto;html=1;exitX=0;exitY=0.5;exitDx=0;exitDy=0;entryX=0.993;entryY=0.863;entryDx=0;entryDy=0;entryPerimeter=0;endArrow=none;endFill=0;" parent="1" source="USD61Rw_IF0pP68Y9RJP-168" target="USD61Rw_IF0pP68Y9RJP-6" edge="1">
          <mxGeometry relative="1" as="geometry" />
        </mxCell>
        <mxCell id="USD61Rw_IF0pP68Y9RJP-187" style="edgeStyle=orthogonalEdgeStyle;rounded=0;orthogonalLoop=1;jettySize=auto;html=1;exitX=0;exitY=0.5;exitDx=0;exitDy=0;entryX=1;entryY=0.5;entryDx=0;entryDy=0;" parent="1" source="USD61Rw_IF0pP68Y9RJP-174" target="USD61Rw_IF0pP68Y9RJP-167" edge="1">
          <mxGeometry relative="1" as="geometry">
            <Array as="points">
              <mxPoint x="1340" y="-232" />
            </Array>
          </mxGeometry>
        </mxCell>
        <mxCell id="USD61Rw_IF0pP68Y9RJP-174" value="&lt;font style=&quot;font-size: 13px;&quot;&gt;MUX&lt;/font&gt;" style="rounded=0;whiteSpace=wrap;html=1;rotation=90;" parent="1" vertex="1">
          <mxGeometry x="1320" y="-160" width="40" height="18.08" as="geometry" />
        </mxCell>
        <mxCell id="USD61Rw_IF0pP68Y9RJP-175" style="edgeStyle=orthogonalEdgeStyle;rounded=0;orthogonalLoop=1;jettySize=auto;html=1;exitX=0.5;exitY=0;exitDx=0;exitDy=0;endArrow=none;endFill=0;" parent="1" source="USD61Rw_IF0pP68Y9RJP-174" edge="1">
          <mxGeometry relative="1" as="geometry">
            <mxPoint x="1360" y="-140" as="targetPoint" />
            <Array as="points">
              <mxPoint x="1360" y="-151" />
              <mxPoint x="1360" y="-145" />
            </Array>
          </mxGeometry>
        </mxCell>
        <mxCell id="USD61Rw_IF0pP68Y9RJP-176" value="" style="endArrow=none;html=1;rounded=0;" parent="1" edge="1">
          <mxGeometry width="50" height="50" relative="1" as="geometry">
            <mxPoint x="1360" y="-36" as="sourcePoint" />
            <mxPoint x="1360" y="-151" as="targetPoint" />
          </mxGeometry>
        </mxCell>
        <mxCell id="USD61Rw_IF0pP68Y9RJP-177" value="" style="endArrow=classic;html=1;rounded=0;entryX=1;entryY=0.316;entryDx=0;entryDy=0;entryPerimeter=0;endFill=1;" parent="1" target="USD61Rw_IF0pP68Y9RJP-6" edge="1">
          <mxGeometry width="50" height="50" relative="1" as="geometry">
            <mxPoint x="1360" y="-140" as="sourcePoint" />
            <mxPoint x="1490" y="-130" as="targetPoint" />
          </mxGeometry>
        </mxCell>
        <mxCell id="USD61Rw_IF0pP68Y9RJP-178" value="" style="endArrow=classic;html=1;rounded=0;entryX=1;entryY=0.316;entryDx=0;entryDy=0;entryPerimeter=0;endFill=1;" parent="1" edge="1">
          <mxGeometry width="50" height="50" relative="1" as="geometry">
            <mxPoint x="1360" y="-120" as="sourcePoint" />
            <mxPoint x="1380" y="-120" as="targetPoint" />
          </mxGeometry>
        </mxCell>
        <mxCell id="USD61Rw_IF0pP68Y9RJP-179" value="" style="endArrow=classic;html=1;rounded=0;entryX=1;entryY=0.316;entryDx=0;entryDy=0;entryPerimeter=0;endFill=1;" parent="1" edge="1">
          <mxGeometry width="50" height="50" relative="1" as="geometry">
            <mxPoint x="1360" y="-81" as="sourcePoint" />
            <mxPoint x="1380" y="-81" as="targetPoint" />
          </mxGeometry>
        </mxCell>
        <mxCell id="USD61Rw_IF0pP68Y9RJP-181" value="" style="endArrow=classic;html=1;rounded=0;entryX=1;entryY=0.316;entryDx=0;entryDy=0;entryPerimeter=0;endFill=1;" parent="1" edge="1">
          <mxGeometry width="50" height="50" relative="1" as="geometry">
            <mxPoint x="1360" y="-36" as="sourcePoint" />
            <mxPoint x="1380" y="-36" as="targetPoint" />
          </mxGeometry>
        </mxCell>
        <mxCell id="USD61Rw_IF0pP68Y9RJP-182" value="" style="endArrow=classic;html=1;rounded=0;entryX=1;entryY=0.316;entryDx=0;entryDy=0;entryPerimeter=0;endFill=1;" parent="1" edge="1">
          <mxGeometry width="50" height="50" relative="1" as="geometry">
            <mxPoint x="1360" y="-58" as="sourcePoint" />
            <mxPoint x="1380" y="-58" as="targetPoint" />
          </mxGeometry>
        </mxCell>
        <mxCell id="USD61Rw_IF0pP68Y9RJP-184" style="edgeStyle=orthogonalEdgeStyle;rounded=0;orthogonalLoop=1;jettySize=auto;html=1;entryX=0.25;entryY=1;entryDx=0;entryDy=0;" parent="1" source="USD61Rw_IF0pP68Y9RJP-183" target="USD61Rw_IF0pP68Y9RJP-174" edge="1">
          <mxGeometry relative="1" as="geometry" />
        </mxCell>
        <mxCell id="USD61Rw_IF0pP68Y9RJP-183" value="&lt;b&gt;&lt;font style=&quot;font-size: 15px;&quot;&gt;0&lt;/font&gt;&lt;/b&gt;" style="text;html=1;strokeColor=none;fillColor=none;align=center;verticalAlign=middle;whiteSpace=wrap;rounded=0;" parent="1" vertex="1">
          <mxGeometry x="1279" y="-167.92" width="20" height="11.92" as="geometry" />
        </mxCell>
        <mxCell id="USD61Rw_IF0pP68Y9RJP-186" value="&lt;span style=&quot;font-size: 15px;&quot;&gt;&lt;b&gt;CU&lt;/b&gt;&lt;/span&gt;" style="text;html=1;strokeColor=none;fillColor=none;align=center;verticalAlign=middle;whiteSpace=wrap;rounded=0;" parent="1" vertex="1">
          <mxGeometry x="1270" y="-147.92" width="30" height="11.92" as="geometry" />
        </mxCell>
        <mxCell id="USD61Rw_IF0pP68Y9RJP-188" value="" style="endArrow=classic;html=1;rounded=0;entryX=0;entryY=0.5;entryDx=0;entryDy=0;endFill=1;" parent="1" target="USD61Rw_IF0pP68Y9RJP-167" edge="1">
          <mxGeometry width="50" height="50" relative="1" as="geometry">
            <mxPoint x="1140" y="60" as="sourcePoint" />
            <mxPoint x="1190" y="-240" as="targetPoint" />
            <Array as="points">
              <mxPoint x="1190" y="60" />
              <mxPoint x="1190" y="-232" />
            </Array>
          </mxGeometry>
        </mxCell>
        <mxCell id="USD61Rw_IF0pP68Y9RJP-189" value="" style="endArrow=oval;html=1;rounded=0;endFill=1;" parent="1" edge="1">
          <mxGeometry width="50" height="50" relative="1" as="geometry">
            <mxPoint x="1140" y="60" as="sourcePoint" />
            <mxPoint x="1140" y="100" as="targetPoint" />
          </mxGeometry>
        </mxCell>
        <mxCell id="USD61Rw_IF0pP68Y9RJP-190" value="" style="endArrow=oval;html=1;rounded=0;endFill=1;" parent="1" edge="1">
          <mxGeometry width="50" height="50" relative="1" as="geometry">
            <mxPoint x="1170" y="60" as="sourcePoint" />
            <mxPoint x="1170" y="80" as="targetPoint" />
          </mxGeometry>
        </mxCell>
        <mxCell id="USD61Rw_IF0pP68Y9RJP-196" value="" style="endArrow=classic;html=1;rounded=0;exitX=1;exitY=0.5;exitDx=0;exitDy=0;entryX=0.726;entryY=1.035;entryDx=0;entryDy=0;entryPerimeter=0;" parent="1" source="USD61Rw_IF0pP68Y9RJP-186" target="USD61Rw_IF0pP68Y9RJP-174" edge="1">
          <mxGeometry width="50" height="50" relative="1" as="geometry">
            <mxPoint x="1310" y="-110" as="sourcePoint" />
            <mxPoint x="1360" y="-160" as="targetPoint" />
          </mxGeometry>
        </mxCell>
        <mxCell id="USD61Rw_IF0pP68Y9RJP-197" value="" style="endArrow=classic;html=1;rounded=0;entryX=0;entryY=0.667;entryDx=0;entryDy=0;entryPerimeter=0;" parent="1" target="USD61Rw_IF0pP68Y9RJP-4" edge="1">
          <mxGeometry width="50" height="50" relative="1" as="geometry">
            <mxPoint x="1910" y="650" as="sourcePoint" />
            <mxPoint x="1490" y="490" as="targetPoint" />
            <Array as="points">
              <mxPoint x="1910" y="720" />
              <mxPoint x="1500" y="720" />
              <mxPoint x="760" y="720" />
              <mxPoint x="760" y="550" />
            </Array>
          </mxGeometry>
        </mxCell>
        <mxCell id="USD61Rw_IF0pP68Y9RJP-198" value="" style="endArrow=none;html=1;rounded=0;exitX=0.98;exitY=0.944;exitDx=0;exitDy=0;exitPerimeter=0;" parent="1" source="USD61Rw_IF0pP68Y9RJP-77" edge="1">
          <mxGeometry width="50" height="50" relative="1" as="geometry">
            <mxPoint x="1892" y="651" as="sourcePoint" />
            <mxPoint x="1910" y="651" as="targetPoint" />
          </mxGeometry>
        </mxCell>
        <mxCell id="4JuenTXHAd3kdfL6fQin-1" value="" style="endArrow=classic;html=1;rounded=0;entryX=0;entryY=0.5;entryDx=0;entryDy=0;startArrow=oval;startFill=1;" edge="1" parent="1" target="USD61Rw_IF0pP68Y9RJP-6">
          <mxGeometry width="50" height="50" relative="1" as="geometry">
            <mxPoint x="710" y="-110" as="sourcePoint" />
            <mxPoint x="1340" y="-110" as="targetPoint" />
          </mxGeometry>
        </mxCell>
        <mxCell id="4JuenTXHAd3kdfL6fQin-2" value="" style="endArrow=classic;html=1;rounded=0;entryX=0.01;entryY=0.935;entryDx=0;entryDy=0;entryPerimeter=0;startArrow=oval;startFill=1;" edge="1" parent="1" target="USD61Rw_IF0pP68Y9RJP-6">
          <mxGeometry width="50" height="50" relative="1" as="geometry">
            <mxPoint x="1090" y="-22" as="sourcePoint" />
            <mxPoint x="1340" y="-110" as="targetPoint" />
          </mxGeometry>
        </mxCell>
        <mxCell id="4JuenTXHAd3kdfL6fQin-3" value="" style="endArrow=classic;html=1;rounded=0;entryX=1.01;entryY=0.183;entryDx=0;entryDy=0;entryPerimeter=0;exitX=0.5;exitY=0;exitDx=0;exitDy=0;startArrow=classic;startFill=1;" edge="1" parent="1" source="USD61Rw_IF0pP68Y9RJP-75" target="USD61Rw_IF0pP68Y9RJP-6">
          <mxGeometry width="50" height="50" relative="1" as="geometry">
            <mxPoint x="1570" y="70" as="sourcePoint" />
            <mxPoint x="1340" y="-110" as="targetPoint" />
            <Array as="points">
              <mxPoint x="1570" y="-165" />
            </Array>
          </mxGeometry>
        </mxCell>
        <mxCell id="4JuenTXHAd3kdfL6fQin-4" value="" style="endArrow=classic;html=1;rounded=0;exitX=0.5;exitY=0;exitDx=0;exitDy=0;entryX=1.02;entryY=0.077;entryDx=0;entryDy=0;entryPerimeter=0;startArrow=classic;startFill=1;" edge="1" parent="1" source="USD61Rw_IF0pP68Y9RJP-77" target="USD61Rw_IF0pP68Y9RJP-6">
          <mxGeometry width="50" height="50" relative="1" as="geometry">
            <mxPoint x="1670" y="40" as="sourcePoint" />
            <mxPoint x="1620" y="-180" as="targetPoint" />
            <Array as="points">
              <mxPoint x="1880" y="-185" />
            </Array>
          </mxGeometry>
        </mxCell>
        <mxCell id="4JuenTXHAd3kdfL6fQin-12" style="edgeStyle=orthogonalEdgeStyle;rounded=0;orthogonalLoop=1;jettySize=auto;html=1;exitX=1;exitY=0.5;exitDx=0;exitDy=0;entryX=0;entryY=0.5;entryDx=0;entryDy=0;" edge="1" parent="1" source="4JuenTXHAd3kdfL6fQin-7" target="4JuenTXHAd3kdfL6fQin-8">
          <mxGeometry relative="1" as="geometry" />
        </mxCell>
        <mxCell id="4JuenTXHAd3kdfL6fQin-7" value="" style="rounded=0;whiteSpace=wrap;html=1;" vertex="1" parent="1">
          <mxGeometry x="700" y="80" width="20" height="40" as="geometry" />
        </mxCell>
        <mxCell id="4JuenTXHAd3kdfL6fQin-13" style="edgeStyle=orthogonalEdgeStyle;rounded=0;orthogonalLoop=1;jettySize=auto;html=1;exitX=1;exitY=0.5;exitDx=0;exitDy=0;entryX=0.112;entryY=0.631;entryDx=0;entryDy=0;entryPerimeter=0;" edge="1" parent="1" source="4JuenTXHAd3kdfL6fQin-8" target="4JuenTXHAd3kdfL6fQin-10">
          <mxGeometry relative="1" as="geometry">
            <mxPoint x="1550" y="50" as="targetPoint" />
            <Array as="points">
              <mxPoint x="1100" y="90" />
              <mxPoint x="1121" y="90" />
              <mxPoint x="1121" y="40" />
              <mxPoint x="1540" y="40" />
              <mxPoint x="1540" y="100" />
            </Array>
          </mxGeometry>
        </mxCell>
        <mxCell id="4JuenTXHAd3kdfL6fQin-8" value="" style="rounded=0;whiteSpace=wrap;html=1;" vertex="1" parent="1">
          <mxGeometry x="1080" y="80" width="20" height="40" as="geometry" />
        </mxCell>
        <mxCell id="4JuenTXHAd3kdfL6fQin-14" style="edgeStyle=orthogonalEdgeStyle;rounded=0;orthogonalLoop=1;jettySize=auto;html=1;exitX=1;exitY=0.5;exitDx=0;exitDy=0;" edge="1" parent="1" source="4JuenTXHAd3kdfL6fQin-10" target="4JuenTXHAd3kdfL6fQin-11">
          <mxGeometry relative="1" as="geometry" />
        </mxCell>
        <mxCell id="4JuenTXHAd3kdfL6fQin-10" value="" style="rounded=0;whiteSpace=wrap;html=1;" vertex="1" parent="1">
          <mxGeometry x="1560" y="75.07" width="20" height="40" as="geometry" />
        </mxCell>
        <mxCell id="4JuenTXHAd3kdfL6fQin-11" value="" style="rounded=0;whiteSpace=wrap;html=1;" vertex="1" parent="1">
          <mxGeometry x="1870" y="90" width="20" height="40" as="geometry" />
        </mxCell>
      </root>
    </mxGraphModel>
  </diagram>
</mxfile>
